<svg xmlns="http://www.w3.org/2000/svg" viewBox="0 0 240 240" role="img" aria-labelledby="title desc">
<title id="title">Custom Wax Seal</title>
<desc id="desc">Wax seal with stylized celestial emblem.</desc>
<rect width="240" height="240" rx="24" fill="#0f182f"/>
<path d="M120 48c-28 0-56 16-64 36-10 26 8 52 16 72 9 24 24 36 48 36s39-15 48-36c9-21 25-45 16-72-7-20-36-36-64-36z" fill="#8c2f3b"/>
<path d="M120 62c-22 0-44 14-52 30-8 19 7 40 14 56 8 19 20 29 38 29s31-12 38-29c7-16 22-37 14-56-7-16-30-30-52-30z" fill="#b4444e"/>
<circle cx="120" cy="120" r="42" fill="#d86a63"/>
<path d="M120 88l8 18 20 2-15 12 4 19-17-10-17 10 4-19-15-12 20-2z" fill="#f5d67b"/>
<circle cx="120" cy="120" r="8" fill="#0f182f"/>
</svg>
